<?xml version="1.0" encoding="UTF-8" standalone="no"?>
<!-- Created with Inkscape (http://www.inkscape.org/) -->

<svg
   width="123.00814mm"
   height="68.993408mm"
   viewBox="0 0 123.00814 68.993408"
   version="1.1"
   id="svg46497"
   xmlns="http://www.w3.org/2000/svg"
   xmlns:svg="http://www.w3.org/2000/svg">
  <defs
     id="defs46494" />
  <g
     id="layer1"
     transform="translate(-37.019967,-34.39873)">
    <g
       id="g46319"
       transform="translate(30.825631,27.654917)">
      <path
         id="path22503-5-0"
         style="fill:#d0c1ab;stroke:#2c0d06;stroke-width:1.86;stroke-linecap:round"
         d="M 128.27248,41.240517 A 60.574074,33.566704 0 0 1 67.69841,74.80722 60.574074,33.566704 0 0 1 7.1243362,41.240517 60.574074,33.566704 0 0 1 67.69841,7.6738129 60.574074,33.566704 0 0 1 128.27248,41.240517 Z" />
      <path
         id="path1080-5-4-9"
         style="fill:#2c0d06;fill-opacity:1;stroke:none;stroke-width:0.0468001"
         d="m 67.842283,10.87241 c -10.5444,9.8e-4 -9.08631,0.82948 -5.2834,0.51463 4.31839,-0.35751 12.04509,0.32733 15.39683,0.69336 11.43372,1.35957 20.01292,4.19882 26.333057,7.01808 1.34404,0.56374 5.81109,2.77253 5.49022,2.37528 -0.80815,-1.00053 -7.43438,-4.3149 -10.434745,-5.38007 -4.723622,-1.68132 -13.045732,-3.69923 -17.884092,-4.29871 -4.63543,-0.57432 -13.61787,-0.92257 -13.61787,-0.92257 z m -10.39226,0.4551 c -0.90829,0.0879 -2.78945,0.016 -4.05894,0.20287 -6.6998,0.77249 -16.12857,3.42727 -20.99677,5.74473 -1.20469,0.57014 -2.81264,1.56764 -3.91534,2.15794 1.1363,-0.15136 7.67507,-3.16504 9.87852,-3.77856 4.65044,-1.75087 11.96176,-3.53384 19.09253,-4.32698 z m -30.42691,9.00279 c -8.55193,5.00104 -13.8892,10.603 -15.451301,16.98463 -0.3546,2.93566 -0.40584,4.52675 0.34344,8.28889 2.721111,7.13243 4.101201,8.80788 9.596001,12.98843 3.80117,2.70286 6.77391,4.87608 10.33665,5.78525 0.64756,0.16524 -1.24375,-0.90682 -1.56075,-1.17498 -2.53293,-1.3818 -3.80419,-2.42487 -6.08552,-3.94742 -6.39294,-5.59813 -8.16002,-7.00707 -10.61821,-13.91407 0,0 -0.641641,-3.17858 -0.715051,-4.63638 -0.0371,-0.73453 -0.027,-1.47567 0.224791,-2.93563 0.5965,-3.45943 3.20243,-7.40689 6.19084,-10.26968 2.23531,-2.72375 3.7815,-3.77197 7.73911,-7.16904 z m 88.236187,5.96838 c 3.77197,3.50341 4.22364,4.7955 6.01525,8.39256 1.6388,3.18086 1.80363,6.46727 1.59044,8.21864 -0.81808,5.08166 -2.42513,8.7904 -8.27739,13.9862 -3.09909,2.75146 -2.89679,2.77902 -5.75494,4.5342 -0.48122,0.29551 -1.71856,0.90824 -2.32908,1.46926 2.91211,-0.048 7.4135,-4.26247 8.93165,-5.67923 3.80781,-3.58983 5.62008,-5.99968 6.73789,-8.28221 2.42619,-4.95421 2.33169,-7.62489 1.0785,-11.57823 -1.62099,-4.9472 -6.53361,-11.38306 -9.22937,-12.82642 -0.38987,0.21701 0.94769,1.4497 1.23736,1.76521 z m -12.25176,37.99256 c -1.88509,0.773 -2.66513,1.20205 -5.193337,1.87872 -5.46157,1.65193 -9.51015,2.71025 -14.38119,3.34573 1.29723,0.63711 14.601532,-2.65538 16.303622,-3.31471 1.549605,-0.62527 5.116655,-2.1346 5.736085,-2.91684 -1.05219,0.36619 -2.02521,0.82669 -2.46518,1.0071 z m -69.265297,0.80901 c 1.83812,1.11195 5.21281,2.42065 8.48506,3.25052 5.3502,1.31778 16.45953,2.7578 21.88341,2.86244 2.50922,0.0484 7.09477,0.13069 12.04984,-0.36742 2.52228,-0.25355 4.09486,-0.54584 6.73288,-1.22615 -2.44431,-0.0498 -5.38989,0.54802 -9.25306,0.82486 -7.01332,0.50259 -23.8666,-0.45437 -33.13149,-3.24348 -4.21269,-1.26819 -6.44587,-2.42516 -6.76664,-2.10077 z" />
      <path
         d="m 72.015643,16.20257 c -8.77729,3.187 -15.04679,10.81488 -15.41251,18.65175 10e-4,3.74304 0.0858,3.31996 -1.88085,5.12008 -1.46288,1.2539 -2.19432,1.46289 -4.96335,1.51513 -3.76169,0 -4.54538,-0.67919 -2.50779,-2.29881 0.99267,-0.78369 1.2539,-1.30615 0.88817,-1.56738 -1.41063,-0.88817 -4.59762,2.40331 -3.97067,4.07518 0.41796,1.09716 2.87351,2.4033 4.49313,2.4033 1.04492,0.0523 0.88818,0.31348 -1.41063,2.35106 -3.03026,2.71678 -8.98628,6.00827 -10.81488,6.00827 -4.64988,0 -6.73971,-7.47115 -3.7617,-13.47942 0.73144,-1.46288 2.45555,-3.6572 3.7617,-4.85885 2.4033,-2.14208 7.94136,-5.17234 9.50873,-5.17234 0.6792,0 0.6792,-0.0522 0,-0.52245 -1.61962,-1.04492 -5.06784,-0.57471 -8.41157,1.20165 -9.03852,4.64987 -11.70305,17.08437 -5.12009,23.98081 3.60496,3.81394 7.68013,2.61229 17.18887,-5.01559 4.9111,-3.97068 5.69479,-4.44089 8.30708,-4.75437 1.56737,-0.20898 3.13474,-0.47021 3.50046,-0.62695 0.52245,-0.20898 0.5747,0.94043 0.36571,5.48581 -0.36571,6.73971 0.47022,10.29242 3.13476,13.0092 2.02233,2.12683 3.51572,1.65887 5.32907,0.41798 1.8286,-1.77637 1.35634,-2.45659 -0.62695,-1.82862 -2.56004,0.62695 -3.55271,0 -4.70212,-2.97801 -1.77636,-4.70212 -0.73144,-13.37492 1.8286,-14.73331 0.52246,-0.26123 2.03759,-0.62695 3.44822,-0.83593 l 2.5078,-0.41797 -0.82831,1.96784 c -1.56737,2.56005 -2.56766,9.21276 -1.52275,10.25768 1.14941,1.1494 2.5078,0.15673 4.3364,-3.187 2.61229,-4.75436 11.49407,-16.50966 10.39691,-13.74064 -0.10449,0.26123 -1.46288,2.92577 -2.97801,5.95602 -3.18699,6.2695 -3.97068,9.56098 -2.87352,11.65081 0.57471,1.09716 1.04492,1.35839 2.08984,1.2539 1.1494,-0.10449 1.61961,-0.67919 2.4033,-2.76903 0.88818,-2.24656 7.57564,-11.85979 8.77729,-12.59123 0.26123,-0.10449 -0.15674,0.99267 -0.83593,2.5078 -2.03759,4.44089 -3.60496,11.38958 -3.18699,14.10636 0.5072,3.81707 3.23048,5.46406 4.9546,5.46406 1.51512,0 3.45697,-1.17991 4.44964,-2.69503 1.201652,-1.77636 0.835932,-2.08984 -1.20166,-1.09717 -2.45555,1.30615 -4.17966,1.09717 -4.80661,-0.62694 -0.83593,-2.08984 0.57471,-8.46382 2.97801,-13.79289 2.19432,-4.9111 2.56005,-8.04585 1.09716,-8.98627 -0.83593,-0.47022 -1.41063,-0.1045 -4.12741,2.82127 -1.77636,1.88085 -3.86619,4.3364 -4.64988,5.43356 -0.83593,1.09716 -1.51513,1.88085 -1.51513,1.67186 0,-0.20898 1.30615,-3.03025 2.92577,-6.32174 1.56737,-3.29148 2.82127,-6.42623 2.71678,-6.89644 -0.41797,-2.14208 -2.29882,-1.30614 -7.26216,3.18699 -2.71678,2.40331 -4.96335,4.3364 -5.0156,4.28416 -0.10449,-0.0522 0.6792,-1.61962 1.61962,-3.50047 2.29881,-4.38865 3.70945,-10.08344 3.18699,-13.32267 -0.26123,-1.77636 -0.83593,-2.97801 -2.29881,-4.49314 -2.66454,-2.87352 -5.06784,-3.29148 -9.50873,-1.67187 z m 8.62055,3.50047 c 0.73144,0.94043 0.88818,1.67187 0.6792,3.81394 -0.31348,3.03026 -2.82128,9.40424 -4.96335,12.48675 -1.30615,1.88084 -1.77636,2.14207 -5.0156,2.76902 -1.93309,0.41797 -3.6572,0.57471 -3.81394,0.41797 -0.36572,-0.36572 1.61962,-5.95602 3.55271,-9.87445 2.92577,-5.90378 1.67187,-8.20259 -1.98534,-3.65721 -2.19432,2.76903 -9.61322,10.03119 -10.18792,10.08344 0,0 -0.52246,-0.78369 0.73144,-4.02293 1.35839,-3.70945 6.94869,-9.76996 10.71038,-11.65081 4.59763,-2.29881 8.46382,-2.4033 10.29242,-0.36572 z m -16.0917,16.14395 c -0.10449,0.36572 -0.52246,1.56737 -0.88818,2.61229 -0.5747,1.77635 -0.83593,1.98534 -2.4033,1.98534 h -1.82861 l 2.29881,-2.61229 c 2.14208,-2.45555 3.39598,-3.34373 2.82128,-1.98534 z"
         id="path1084-8-5-0"
         style="fill:#2c0d06;fill-opacity:1;stroke:none;stroke-width:0.0522458" />
    </g>
  </g>
</svg>
